<svg width="18" height="18" viewBox="0 0 18 18" fill="none" xmlns="http://www.w3.org/2000/svg">
<path fill-rule="evenodd" clip-rule="evenodd" d="M9 18C13.9706 18 18 13.9706 18 9C18 4.02944 13.9706 0 9 0C4.02944 0 0 4.02944 0 9C0 13.9706 4.02944 18 9 18ZM9.51 13V7.58H7.61V13H9.51ZM7.72 6.69C7.93333 6.88333 8.21333 6.98 8.56 6.98C8.90667 6.98 9.18667 6.88333 9.4 6.69C9.61333 6.49 9.72 6.24 9.72 5.94C9.72 5.65333 9.61333 5.42 9.4 5.24C9.18667 5.05333 8.90667 4.96 8.56 4.96C8.21333 4.96 7.93333 5.05667 7.72 5.25C7.50667 5.44333 7.4 5.68333 7.4 5.97C7.4 6.25667 7.50667 6.49667 7.72 6.69Z" fill="#781101"/>
</svg>
