<svg width="81" height="70" viewBox="0 0 81 70" fill="none" xmlns="http://www.w3.org/2000/svg">
<line x1="27.9997" y1="35.0608" x2="53.9997" y2="35.0534" stroke="#E9D6A4" stroke-width="2" stroke-linecap="round" stroke-linejoin="round"/>
<line x1="29.9997" y1="42.0048" x2="51.9997" y2="41.9986" stroke="#E9D6A4" stroke-width="2" stroke-linecap="round" stroke-linejoin="round"/>
<line x1="30.9997" y1="49.0704" x2="50.9997" y2="49.0647" stroke="#E9D6A4" stroke-width="2" stroke-linecap="round" stroke-linejoin="round"/>
<path d="M47.4127 27.9763C47.7648 27.2502 48.8308 26.805 49.9115 26.9663C50.4796 27.0511 50.9676 27.2888 51.2854 27.6354C51.5911 27.9688 51.7041 28.3649 51.6062 28.7553C51.774 28.907 51.9017 29.0807 51.9805 29.2657C52.0525 29.4341 51.9192 29.6123 51.6829 29.6637C51.4469 29.7151 51.1968 29.62 51.1251 29.4514C51.0636 29.3075 50.9517 29.175 50.8019 29.0686C50.6847 28.9853 50.6416 28.8628 50.6896 28.7499C50.7017 28.7213 50.711 28.6956 50.7182 28.6708C50.7881 28.4323 50.7238 28.1886 50.5369 27.9846C50.3498 27.7806 50.0628 27.6408 49.7284 27.5908C49.0387 27.4882 48.3601 27.8042 48.2149 28.2958C48.1793 28.4166 48.0488 28.5119 47.8803 28.5403C47.3994 28.6216 47.0231 28.8969 46.9219 29.2416C46.852 29.4803 46.9166 29.7239 47.1035 29.928C47.2906 30.132 47.5777 30.2718 47.9123 30.3216C48.1287 30.3539 48.3541 30.3456 48.564 30.2974C48.7215 30.2613 48.8935 30.2899 49.0121 30.3718C49.1855 30.4915 49.4022 30.5736 49.6387 30.6089C49.9728 30.6588 50.3146 30.6129 50.6006 30.4794C50.8072 30.383 51.0845 30.4242 51.2197 30.5718C51.3548 30.7193 51.2968 30.9169 51.0901 31.0133C50.7322 31.1804 50.3228 31.2667 49.905 31.2667C49.7556 31.2667 49.6051 31.2557 49.4555 31.2334C49.1384 31.186 48.8422 31.0893 48.5866 30.9507C48.3042 30.9897 48.012 30.9884 47.7291 30.9462C47.1608 30.8614 46.6729 30.6238 46.3553 30.2771C46.0374 29.9307 45.9279 29.5164 46.0467 29.1112C46.1998 28.5894 46.7232 28.1613 47.4127 27.9763Z" fill="#E9D6A4"/>
<path d="M49.5873 21.9096C49.2352 21.1836 48.1692 20.7384 47.0885 20.8996C46.5204 20.9844 46.0324 21.2221 45.7146 21.5687C45.4089 21.9022 45.2959 22.2983 45.3938 22.6886C45.226 22.8404 45.0983 23.0141 45.0195 23.1991C44.9475 23.3675 45.0808 23.5457 45.3171 23.597C45.5531 23.6484 45.8032 23.5533 45.8749 23.3848C45.9364 23.2408 46.0483 23.1083 46.1981 23.0019C46.3153 22.9187 46.3584 22.7962 46.3104 22.6833C46.2983 22.6547 46.289 22.6289 46.2818 22.6042C46.2119 22.3656 46.2762 22.1219 46.4631 21.918C46.6502 21.714 46.9372 21.5742 47.2716 21.5242C47.9613 21.4216 48.6399 21.7376 48.7851 22.2291C48.8207 22.35 48.9512 22.4452 49.1197 22.4737C49.6006 22.555 49.9769 22.8302 50.0781 23.175C50.148 23.4137 50.0834 23.6572 49.8965 23.8614C49.7094 24.0653 49.4223 24.2051 49.0877 24.255C48.8713 24.2872 48.6459 24.2789 48.436 24.2307C48.2785 24.1946 48.1065 24.2232 47.9879 24.3052C47.8145 24.4249 47.5978 24.507 47.3613 24.5422C47.0272 24.5921 46.6854 24.5462 46.3994 24.4127C46.1928 24.3163 45.9155 24.3576 45.7803 24.5052C45.6452 24.6526 45.7032 24.8503 45.9099 24.9467C46.2678 25.1137 46.6772 25.2 47.095 25.2C47.2444 25.2 47.3949 25.189 47.5445 25.1668C47.8616 25.1194 48.1578 25.0226 48.4134 24.884C48.6958 24.9231 48.988 24.9217 49.2709 24.8795C49.8392 24.7947 50.3271 24.5572 50.6447 24.2104C50.9626 23.864 51.0721 23.4498 50.9533 23.0445C50.8002 22.5227 50.2768 22.0947 49.5873 21.9096Z" fill="#E9D6A4"/>
<path d="M41.5873 27.1096C41.2352 26.3835 40.1692 25.9384 39.0885 26.0996C38.5204 26.1844 38.0324 26.4221 37.7146 26.7687C37.4089 27.1021 37.2959 27.4983 37.3938 27.8886C37.226 28.0403 37.0983 28.2141 37.0195 28.3991C36.9475 28.5675 37.0808 28.7457 37.3171 28.797C37.5531 28.8484 37.8032 28.7533 37.8749 28.5847C37.9364 28.4408 38.0483 28.3083 38.1981 28.2019C38.3153 28.1186 38.3584 27.9961 38.3104 27.8833C38.2983 27.8547 38.289 27.8289 38.2818 27.8041C38.2119 27.5656 38.2762 27.3219 38.4631 27.1179C38.6502 26.914 38.9372 26.7742 39.2716 26.7241C39.9613 26.6216 40.6399 26.9376 40.7851 27.4291C40.8207 27.55 40.9512 27.6452 41.1197 27.6736C41.6006 27.7549 41.9769 28.0302 42.0781 28.375C42.148 28.6137 42.0834 28.8572 41.8965 29.0613C41.7094 29.2653 41.4223 29.4051 41.0877 29.455C40.8713 29.4872 40.6459 29.4789 40.436 29.4307C40.2785 29.3946 40.1065 29.4232 39.9879 29.5052C39.8145 29.6248 39.5978 29.707 39.3613 29.7422C39.0272 29.7921 38.6854 29.7462 38.3994 29.6127C38.1928 29.5163 37.9155 29.5575 37.7803 29.7051C37.6452 29.8526 37.7032 30.0502 37.9099 30.1466C38.2678 30.3137 38.6772 30.4 39.095 30.4C39.2444 30.4 39.3949 30.389 39.5445 30.3667C39.8616 30.3193 40.1578 30.2226 40.4134 30.084C40.6958 30.123 40.988 30.1217 41.2709 30.0795C41.8392 29.9947 42.3271 29.7572 42.6447 29.4104C42.9626 29.064 43.0721 28.6497 42.9533 28.2445C42.8002 27.7227 42.2768 27.2946 41.5873 27.1096Z" fill="#E9D6A4"/>
<path d="M42.5873 23.2903C42.2352 24.0164 41.1692 24.4616 40.0885 24.3003C39.5204 24.2156 39.0324 23.9779 38.7146 23.6313C38.4089 23.2978 38.2959 22.9017 38.3938 22.5114C38.226 22.3596 38.0983 22.1859 38.0195 22.0009C37.9475 21.8325 38.0808 21.6543 38.3171 21.6029C38.5531 21.5516 38.8032 21.6467 38.8749 21.8152C38.9364 21.9592 39.0483 22.0917 39.1981 22.198C39.3153 22.2813 39.3584 22.4038 39.3104 22.5167C39.2983 22.5453 39.289 22.5711 39.2818 22.5958C39.2119 22.8344 39.2762 23.0781 39.4631 23.282C39.6502 23.486 39.9372 23.6258 40.2716 23.6758C40.9613 23.7784 41.6399 23.4624 41.7851 22.9708C41.8207 22.85 41.9512 22.7547 42.1197 22.7263C42.6006 22.645 42.9769 22.3698 43.0781 22.025C43.148 21.7863 43.0834 21.5428 42.8965 21.3386C42.7094 21.1347 42.4223 20.9949 42.0877 20.945C41.8713 20.9128 41.6459 20.9211 41.436 20.9693C41.2785 21.0053 41.1065 20.9768 40.9879 20.8948C40.8145 20.7751 40.5978 20.693 40.3613 20.6578C40.0272 20.6079 39.6854 20.6538 39.3994 20.7872C39.1928 20.8837 38.9155 20.8424 38.7803 20.6948C38.6452 20.5474 38.7032 20.3497 38.9099 20.2533C39.2678 20.0863 39.6772 20 40.095 20C40.2444 20 40.3949 20.011 40.5445 20.0332C40.8616 20.0806 41.1578 20.1774 41.4134 20.316C41.6958 20.2769 41.988 20.2783 42.2709 20.3205C42.8392 20.4053 43.3271 20.6428 43.6447 20.9896C43.9626 21.336 44.0721 21.7502 43.9533 22.1555C43.8002 22.6773 43.2768 23.1053 42.5873 23.2903Z" fill="#E9D6A4"/>
<path d="M29.4127 30.2237C29.7648 30.9498 30.8308 31.3949 31.9115 31.2337C32.4796 31.1489 32.9676 30.9112 33.2854 30.5646C33.5911 30.2312 33.7041 29.835 33.6062 29.4447C33.774 29.293 33.9017 29.1193 33.9805 28.9342C34.0525 28.7658 33.9192 28.5876 33.6829 28.5363C33.4469 28.4849 33.1968 28.58 33.1251 28.7486C33.0636 28.8925 32.9517 29.025 32.8019 29.1314C32.6847 29.2147 32.6416 29.3372 32.6896 29.45C32.7017 29.4786 32.711 29.5044 32.7182 29.5292C32.7881 29.7677 32.7238 30.0114 32.5369 30.2154C32.3498 30.4193 32.0628 30.5591 31.7284 30.6092C31.0387 30.7117 30.3601 30.3957 30.2149 29.9042C30.1793 29.7833 30.0488 29.6881 29.8803 29.6597C29.3994 29.5784 29.0231 29.3031 28.9219 28.9583C28.852 28.7196 28.9166 28.4761 29.1035 28.272C29.2906 28.068 29.5777 27.9282 29.9123 27.8783C30.1287 27.8461 30.3541 27.8544 30.564 27.9026C30.7215 27.9387 30.8935 27.9101 31.0121 27.8281C31.1855 27.7085 31.4022 27.6263 31.6387 27.5911C31.9728 27.5412 32.3146 27.5871 32.6006 27.7206C32.8072 27.817 33.0845 27.7758 33.2197 27.6282C33.3548 27.4807 33.2968 27.2831 33.0901 27.1867C32.7322 27.0196 32.3228 26.9333 31.905 26.9333C31.7556 26.9333 31.6051 26.9443 31.4555 26.9666C31.1384 27.0139 30.8422 27.1107 30.5866 27.2493C30.3042 27.2103 30.012 27.2116 29.7291 27.2538C29.1608 27.3386 28.6729 27.5761 28.3553 27.9229C28.0374 28.2693 27.9279 28.6836 28.0467 29.0888C28.1998 29.6106 28.7232 30.0387 29.4127 30.2237Z" fill="#E9D6A4"/>
<path d="M34.5873 22.7763C34.2352 22.0502 33.1692 21.6051 32.0885 21.7663C31.5204 21.8511 31.0324 22.0888 30.7146 22.4354C30.4089 22.7688 30.2959 23.165 30.3938 23.5553C30.226 23.707 30.0983 23.8807 30.0195 24.0658C29.9475 24.2342 30.0808 24.4124 30.3171 24.4637C30.5531 24.5151 30.8032 24.42 30.8749 24.2514C30.9364 24.1075 31.0483 23.975 31.1981 23.8686C31.3153 23.7853 31.3584 23.6628 31.3104 23.55C31.2983 23.5214 31.289 23.4956 31.2818 23.4708C31.2119 23.2323 31.2762 22.9886 31.4631 22.7846C31.6502 22.5807 31.9372 22.4409 32.2716 22.3908C32.9613 22.2883 33.6399 22.6043 33.7851 23.0958C33.8207 23.2167 33.9512 23.3119 34.1197 23.3403C34.6006 23.4216 34.9769 23.6969 35.0781 24.0417C35.148 24.2804 35.0834 24.5239 34.8965 24.728C34.7094 24.932 34.4223 25.0718 34.0877 25.1217C33.8713 25.1539 33.6459 25.1456 33.436 25.0974C33.2785 25.0613 33.1065 25.0899 32.9879 25.1719C32.8145 25.2915 32.5978 25.3737 32.3613 25.4089C32.0272 25.4588 31.6854 25.4129 31.3994 25.2794C31.1928 25.183 30.9155 25.2242 30.7803 25.3718C30.6452 25.5193 30.7032 25.7169 30.9099 25.8133C31.2678 25.9804 31.6772 26.0667 32.095 26.0667C32.2444 26.0667 32.3949 26.0557 32.5445 26.0334C32.8616 25.9861 33.1578 25.8893 33.4134 25.7507C33.6958 25.7897 33.988 25.7884 34.2709 25.7462C34.8392 25.6614 35.3271 25.4239 35.6447 25.0771C35.9626 24.7307 36.0721 24.3164 35.9533 23.9112C35.8002 23.3894 35.2768 22.9613 34.5873 22.7763Z" fill="#E9D6A4"/>
</svg>
